# xmcd
#
# Track frame offsets:
#	152
#	19778
#	47028
#	69332
#	89168
#	115296
#	133143
#	159722
#	183927
#	205188
#	222331
#
# Disc length: 3256 seconds
#
# Revision: 1
# Processed by: cddbd v1.5.1PL0 Copyright (c) Steve Scherf et al.
# Submitted via: CDex 1.50Beta5
#
DISCID=a20cb60b
DTITLE=さまざまなアーティスト - H15. 6 ランキングシングル
DYEAR=1900
DGENRE=
TTITLE0=EXILE/Together
TTITLE1=中島 美嘉/接吻
TTITLE2=リップスライム/JOINT
TTITLE3=DO As Infinity/魔法の言葉
TTITLE4=Crystal Kay Ives M-FLO/I LIKE IT
TTITLE5=サザンオールスターズ/勝手にシンドバッド
TTITLE6=柴咲 コウ/眠レナイ夜ハ眠ラナイ夢ヲ
TTITLE7=Kinki Kids/心に夢を君には愛を
TTITLE8=気志団/スウィンギン・ニッポン
TTITLE9=COOL DRIVE/スーツケース
TTITLE10=HYDE/HELLO
EXTD=
EXTT0=
EXTT1=
EXTT2=
EXTT3=
EXTT4=
EXTT5=
EXTT6=
EXTT7=
EXTT8=
EXTT9=
EXTT10=
PLAYORDER=
